<?xml version="1.0" encoding="UTF-8" standalone="no"?>
<!-- Created with Inkscape (http://www.inkscape.org/) -->

<svg
   version="1.1"
   id="svg2"
   width="501.33334"
   height="506.66666"
   viewBox="0 0 501.33334 506.66666"
   sodipodi:docname="snowflake.eps"
   xmlns:inkscape="http://www.inkscape.org/namespaces/inkscape"
   xmlns:sodipodi="http://sodipodi.sourceforge.net/DTD/sodipodi-0.dtd"
   xmlns="http://www.w3.org/2000/svg"
   xmlns:svg="http://www.w3.org/2000/svg">
  <defs
     id="defs6">
    <clipPath
       clipPathUnits="userSpaceOnUse"
       id="clipPath18">
      <path
         d="m 3.25,8.23438 h 3753.5 V 3791.7644 H 3.25 Z"
         id="path16" />
    </clipPath>
  </defs>
  <sodipodi:namedview
     id="namedview4"
     pagecolor="#ffffff"
     bordercolor="#000000"
     borderopacity="0.25"
     inkscape:showpageshadow="2"
     inkscape:pageopacity="0.0"
     inkscape:pagecheckerboard="0"
     inkscape:deskcolor="#d1d1d1" />
  <g
     id="g8"
     inkscape:groupmode="layer"
     inkscape:label="ink_ext_XXXXXX"
     transform="matrix(1.3333333,0,0,-1.3333333,0,506.66667)">
    <g
       id="g10"
       transform="scale(0.1)">
      <g
         id="g12">
        <g
           id="g14"
           clip-path="url(#clipPath18)">
          <path
             d="m 768.965,1249.88 13.902,24.07 -13.902,24.08 h 27.805 l 13.898,24.08 -13.898,24.08 h -27.805 l 13.902,24.08 -13.902,24.08 h 27.805 l 13.898,24.08 13.902,-24.08 h 27.805 l 13.902,24.08 -13.902,24.07 h 27.805 l 13.902,24.08 -13.902,24.08 h -27.805 l 13.902,24.08 -13.902,24.08 H 824.57 l -13.902,-24.08 -13.898,24.08 h -27.805 l 13.902,24.08 -13.902,24.08 h 27.805 l 13.898,24.07 -13.898,24.08 h -27.805 l 13.902,24.08 -13.902,24.08 h 27.805 l 13.898,24.08 13.902,-24.08 h 27.805 l 13.902,24.08 -13.902,24.08 h 27.805 l 13.902,24.08 13.902,-24.08 h 27.801"
             style="fill:none;stroke:#000000;stroke-width:7.507;stroke-linecap:round;stroke-linejoin:round;stroke-miterlimit:10;stroke-dasharray:none;stroke-opacity:1"
             id="path20" />
          <path
             d="m 935.785,1731.45 -13.902,-24.08 13.902,-24.08 h 27.805 l 13.902,24.08 13.903,-24.08 h 27.805 l 13.9,24.08 -13.9,24.08 h 27.8 l 13.9,24.08 -13.9,24.08 h -27.8 l 13.9,24.07 -13.9,24.09 h 27.8 l 13.9,24.07 13.9,-24.07 h 27.81 l 13.9,24.07 -13.9,24.08 h 27.8 l 13.9,24.08 -13.9,24.08 h -27.8 l 13.9,24.08 -13.9,24.07 h -27.81 l -13.9,-24.07 -13.9,24.07 h -27.8 l 13.9,24.09 -13.9,24.07 h 27.8 l 13.9,24.08 -13.9,24.08 h -27.8 l 13.9,24.08 -13.9,24.08 h -27.805 l -13.903,-24.08 -13.902,24.08 h -27.805"
             style="fill:none;stroke:#000000;stroke-width:7.507;stroke-linecap:round;stroke-linejoin:round;stroke-miterlimit:10;stroke-dasharray:none;stroke-opacity:1"
             id="path22" />
          <path
             d="m 935.785,2116.71 -13.902,-24.08 13.902,-24.08 h -27.801 l -13.902,-24.08 -13.902,24.08 h -27.805 l 13.902,24.08 -13.902,24.08 H 824.57 l -13.902,-24.08 -13.898,24.08 h -27.805 l 13.902,24.08 -13.902,24.08 h 27.805 l 13.898,24.08 -13.898,24.07 h -27.805 l 13.902,24.08 -13.902,24.08 h 27.805 l 13.898,24.08 13.902,-24.08 h 27.805 l 13.902,24.08 -13.902,24.08 h 27.805 l 13.902,24.08 -13.902,24.08 h -27.805 l 13.902,24.07 -13.902,24.08 H 824.57 l -13.902,-24.08 -13.898,24.08 h -27.805 l 13.902,24.08 -13.902,24.08 h 27.805 l 13.898,24.08 -13.898,24.08 h -27.805"
             style="fill:none;stroke:#000000;stroke-width:7.507;stroke-linecap:round;stroke-linejoin:round;stroke-miterlimit:10;stroke-dasharray:none;stroke-opacity:1"
             id="path24" />
          <path
             d="m 768.965,2501.97 13.902,24.08 -13.902,24.08 h 27.805 l 13.898,24.07 13.902,-24.07 h 27.805 l 13.902,24.07 -13.902,24.08 h 27.805 l 13.902,24.08 13.902,-24.08 h 27.801 l -13.902,-24.08 13.902,-24.07 h 27.805 l 13.902,24.07 13.903,-24.07 h 27.805 l 13.9,24.07 -13.9,24.08 h 27.8 l 13.9,24.08 -13.9,24.08 h -27.8 l 13.9,24.08 -13.9,24.08 h 27.8 l 13.9,24.08 13.9,-24.08 h 27.81 l 13.9,24.08 -13.9,24.07 h 27.8 l 13.9,24.08 13.9,-24.08 h 27.81 l -13.9,-24.07 13.9,-24.08 h 27.8 l 13.91,24.08 13.9,-24.08 h 27.8"
             style="fill:none;stroke:#000000;stroke-width:7.507;stroke-linecap:round;stroke-linejoin:round;stroke-miterlimit:10;stroke-dasharray:none;stroke-opacity:1"
             id="path26" />
          <path
             d="m 1269.43,2694.6 -13.9,-24.08 13.9,-24.08 h -27.8 l -13.9,-24.08 13.9,-24.08 h 27.8 l -13.9,-24.08 13.9,-24.07 h 27.8 l 13.91,24.07 13.9,-24.07 h 27.8 l 13.9,24.07 -13.9,24.08 h 27.8 l 13.91,24.08 13.9,-24.08 h 27.8 l -13.9,-24.08 13.9,-24.07 h 27.81 l 13.9,24.07 13.9,-24.07 h 27.8 l 13.91,24.07 -13.91,24.08 h 27.81 l 13.9,24.08 -13.9,24.08 h -27.81 l 13.91,24.08 -13.91,24.08 h 27.81 l 13.9,24.08 13.9,-24.08 h 27.8 l 13.91,24.08 -13.91,24.07 h 27.81 l 13.9,24.08 -13.9,24.08 h -27.81"
             style="fill:none;stroke:#000000;stroke-width:7.507;stroke-linecap:round;stroke-linejoin:round;stroke-miterlimit:10;stroke-dasharray:none;stroke-opacity:1"
             id="path28" />
          <path
             d="m 1603.07,2790.91 13.91,24.08 -13.91,24.08 h -27.8 l -13.9,-24.08 -13.9,24.08 h -27.81 l 13.91,24.08 -13.91,24.08 h 27.81 l 13.9,24.07 -13.9,24.09 h -27.81 l 13.91,24.07 -13.91,24.08 h 27.81 l 13.9,24.08 13.9,-24.08 h 27.8 l 13.91,24.08 -13.91,24.08 h 27.81 l 13.9,24.08 13.9,-24.08 h 27.8 l -13.89,-24.08 13.89,-24.08 h 27.81 l 13.9,24.08 13.9,-24.08 h 27.81 l 13.9,24.08 -13.9,24.08 h 27.8 l 13.9,24.08 -13.9,24.08 h -27.8 l 13.9,24.08 -13.9,24.08 h 27.8 l 13.9,24.07 13.9,-24.07 h 27.81"
             style="fill:none;stroke:#000000;stroke-width:7.507;stroke-linecap:round;stroke-linejoin:round;stroke-miterlimit:10;stroke-dasharray:none;stroke-opacity:1"
             id="path30" />
          <path
             d="m 1853.31,3128.02 13.9,24.07 -13.9,24.08 h 27.8 l 13.91,24.08 13.89,-24.08 h 27.81 l -13.9,-24.08 13.9,-24.07 h 27.8 l 13.91,24.07 13.9,-24.07 h 27.8 l -13.9,-24.08 13.9,-24.08 h -27.8 l -13.9,-24.08 13.9,-24.08 h 27.8 l -13.9,-24.08 13.9,-24.08 h 27.8 l 13.91,24.08 13.9,-24.08 h 27.8 l 13.91,24.08 -13.91,24.08 h 27.8 l 13.91,24.08 13.9,-24.08 h 27.8 l -13.9,-24.08 13.9,-24.08 h 27.81 l 13.9,24.08 13.9,-24.08 h 27.8 l -13.9,-24.08 13.9,-24.07 h -27.8 l -13.9,-24.09 13.9,-24.07 h 27.8"
             style="fill:none;stroke:#000000;stroke-width:7.507;stroke-linecap:round;stroke-linejoin:round;stroke-miterlimit:10;stroke-dasharray:none;stroke-opacity:1"
             id="path32" />
          <path
             d="m 2270.36,2887.23 -13.9,-24.08 13.9,-24.08 h -27.8 l -13.9,-24.08 -13.9,24.08 h -27.81 l -13.9,-24.08 13.9,-24.08 h -27.8 l -13.9,-24.08 13.9,-24.08 h 27.8 l -13.9,-24.07 13.9,-24.08 h 27.81 l 13.9,24.08 13.9,-24.08 h 27.8 l -13.9,-24.08 13.9,-24.08 h -27.8 l -13.9,-24.08 13.9,-24.08 h 27.8 l -13.9,-24.08 13.9,-24.07 h 27.81 l 13.9,24.07 13.9,-24.07 h 27.8 l 13.91,24.07 -13.91,24.08 h 27.81 l 13.9,24.08 13.9,-24.08 h 27.81 l -13.9,-24.08 13.9,-24.07 h 27.8 l 13.9,24.07 13.9,-24.07 h 27.81"
             style="fill:none;stroke:#000000;stroke-width:7.507;stroke-linecap:round;stroke-linejoin:round;stroke-miterlimit:10;stroke-dasharray:none;stroke-opacity:1"
             id="path34" />
          <path
             d="m 2520.6,2550.13 13.9,24.07 -13.9,24.08 h 27.8 l 13.9,24.08 -13.9,24.08 h -27.8 l 13.9,24.08 -13.9,24.08 h 27.8 l 13.9,24.08 13.9,-24.08 h 27.81 l 13.9,24.08 -13.9,24.07 h 27.8 l 13.9,24.08 13.91,-24.08 h 27.8 l -13.9,-24.07 13.9,-24.08 h 27.8 l 13.91,24.08 13.9,-24.08 h 27.8 l -13.9,-24.08 13.9,-24.08 h -27.8 l -13.9,-24.08 13.9,-24.08 h 27.8 l -13.9,-24.08 13.9,-24.07 h 27.8 l 13.91,24.07 13.9,-24.07 h 27.8 l 13.9,24.07 -13.9,24.08 h 27.81 l 13.9,24.08 13.9,-24.08 h 27.8"
             style="fill:none;stroke:#000000;stroke-width:7.507;stroke-linecap:round;stroke-linejoin:round;stroke-miterlimit:10;stroke-dasharray:none;stroke-opacity:1"
             id="path36" />
          <path
             d="m 2937.65,2598.28 -13.9,-24.08 13.9,-24.07 h 27.81 l 13.9,24.07 13.9,-24.07 h 27.8 l -13.9,-24.08 13.9,-24.08 h -27.8 l -13.9,-24.08 13.9,-24.08 h 27.8 l -13.9,-24.08 13.9,-24.08 h -27.8 l -13.9,-24.08 -13.9,24.08 h -27.81 l -13.9,-24.08 13.9,-24.07 h -27.8 l -13.9,-24.08 13.9,-24.08 h 27.8 l -13.9,-24.08 13.9,-24.08 h 27.81 l 13.9,24.08 13.9,-24.08 h 27.8 l -13.9,-24.08 13.9,-24.08 h -27.8 l -13.9,-24.07 13.9,-24.08 h 27.8 l -13.9,-24.08 13.9,-24.08 h -27.8 l -13.9,-24.08 -13.9,24.08 h -27.81"
             style="fill:none;stroke:#000000;stroke-width:7.507;stroke-linecap:round;stroke-linejoin:round;stroke-miterlimit:10;stroke-dasharray:none;stroke-opacity:1"
             id="path38" />
          <path
             d="m 2937.65,2116.71 -13.9,-24.08 13.9,-24.08 h -27.8 l -13.9,-24.08 -13.9,24.08 h -27.81 l 13.9,24.08 -13.9,24.08 h -27.8 l -13.9,-24.08 -13.91,24.08 h -27.8 l -13.9,-24.08 13.9,-24.08 h -27.8 l -13.9,-24.08 13.9,-24.08 h 27.8 l -13.9,-24.07 13.9,-24.09 h -27.8 l -13.9,-24.07 -13.91,24.07 h -27.8 l -13.9,-24.07 13.9,-24.08 h -27.8 l -13.91,-24.08 13.91,-24.08 h 27.8 l -13.9,-24.08 13.9,-24.07 h 27.8 l 13.91,24.07 13.9,-24.07 h 27.8 l -13.9,-24.09 13.9,-24.07 h -27.8 l -13.9,-24.08 13.9,-24.08 h 27.8"
             style="fill:none;stroke:#000000;stroke-width:7.507;stroke-linecap:round;stroke-linejoin:round;stroke-miterlimit:10;stroke-dasharray:none;stroke-opacity:1"
             id="path40" />
          <path
             d="m 2770.83,1731.45 -13.9,-24.08 13.9,-24.08 h 27.8 l 13.91,24.08 13.9,-24.08 h 27.8 l 13.9,24.08 -13.9,24.08 h 27.81 l 13.9,24.08 13.9,-24.08 h 27.8 l -13.9,-24.08 13.9,-24.08 h 27.81 l 13.9,24.08 13.9,-24.08 h 27.8 l -13.9,-24.08 13.9,-24.08 h -27.8 l -13.9,-24.08 13.9,-24.07 h 27.8 l -13.9,-24.08 13.9,-24.08 h -27.8 l -13.9,-24.08 -13.9,24.08 h -27.81 l -13.9,-24.08 13.9,-24.08 h -27.8 l -13.9,-24.08 13.9,-24.08 h 27.8 l -13.9,-24.07 13.9,-24.08 h 27.81 l 13.9,24.08 13.9,-24.08 h 27.8"
             style="fill:none;stroke:#000000;stroke-width:7.507;stroke-linecap:round;stroke-linejoin:round;stroke-miterlimit:10;stroke-dasharray:none;stroke-opacity:1"
             id="path42" />
          <path
             d="m 3021.06,1394.35 -13.9,-24.08 13.9,-24.08 h -27.8 l -13.9,-24.08 13.9,-24.08 h 27.8 l -13.9,-24.08 13.9,-24.07 h -27.8 l -13.9,-24.08 -13.9,24.08 h -27.81 l -13.9,-24.08 13.9,-24.08 h -27.8 l -13.9,-24.08 -13.9,24.08 h -27.81 l 13.9,24.08 -13.9,24.08 h -27.8 l -13.9,-24.08 -13.91,24.08 h -27.8 l -13.9,-24.08 13.9,-24.08 h -27.8 l -13.9,-24.08 13.9,-24.08 h 27.8 l -13.9,-24.08 13.9,-24.08 h -27.8 l -13.9,-24.08 -13.91,24.08 h -27.8 l -13.9,-24.08 13.9,-24.07 h -27.8 l -13.91,-24.08 -13.9,24.08 h -27.8"
             style="fill:none;stroke:#000000;stroke-width:7.507;stroke-linecap:round;stroke-linejoin:round;stroke-miterlimit:10;stroke-dasharray:none;stroke-opacity:1"
             id="path44" />
          <path
             d="m 2604.01,1057.25 13.9,24.07 -13.9,24.08 h -27.81 l -13.9,-24.08 -13.9,24.08 h -27.8 l 13.9,24.08 -13.9,24.08 h 27.8 l 13.9,24.08 -13.9,24.08 h -27.8 l 13.9,24.08 -13.9,24.08 h -27.81 l -13.9,-24.08 -13.9,24.08 h -27.8 l -13.9,-24.08 13.9,-24.08 h -27.81 l -13.9,-24.08 -13.9,24.08 h -27.81 l 13.91,24.08 -13.91,24.08 h -27.8 l -13.9,-24.08 -13.9,24.08 h -27.81 l -13.9,-24.08 13.9,-24.08 h -27.8 l -13.9,-24.08 13.9,-24.08 h 27.8 l -13.9,-24.08 13.9,-24.08 h -27.8 l -13.9,-24.08 -13.9,24.08 h -27.81"
             style="fill:none;stroke:#000000;stroke-width:7.507;stroke-linecap:round;stroke-linejoin:round;stroke-miterlimit:10;stroke-dasharray:none;stroke-opacity:1"
             id="path46" />
          <path
             d="m 2186.95,1105.4 -13.9,-24.08 13.9,-24.07 h -27.8 l -13.9,-24.08 13.9,-24.08 h 27.8 l -13.9,-24.082 13.9,-24.078 h 27.81 l 13.9,24.078 13.9,-24.078 h 27.8 l -13.9,-24.078 13.9,-24.079 h -27.8 l -13.9,-24.078 13.9,-24.078 h 27.8 l -13.9,-24.082 13.9,-24.078 h -27.8 l -13.9,-24.078 -13.9,24.078 h -27.81 l -13.9,-24.078 13.9,-24.078 h -27.8 l -13.9,-24.078 -13.91,24.078 h -27.8 l 13.91,24.078 -13.91,24.078 h -27.8 l -13.9,-24.078 -13.91,24.078 h -27.8 l -13.9,-24.078 13.9,-24.078 h -27.8 l -13.9,-24.078 13.9,-24.078 h 27.8"
             style="fill:none;stroke:#000000;stroke-width:7.507;stroke-linecap:round;stroke-linejoin:round;stroke-miterlimit:10;stroke-dasharray:none;stroke-opacity:1"
             id="path48" />
          <path
             d="m 2020.13,720.145 -13.9,-24.082 13.9,-24.079 h -27.8 l -13.9,-24.078 -13.91,24.078 h -27.8 l -13.9,-24.078 13.9,-24.078 h -27.81 l -13.89,-24.078 -13.91,24.078 h -27.8 l 13.9,24.078 -13.9,24.078 h -27.81 l -13.9,-24.078 -13.9,24.078 h -27.8 l 13.9,24.079 -13.9,24.082 h 27.8 l 13.9,24.078 -13.9,24.078 h -27.8 l 13.9,24.078 -13.9,24.078 h -27.81 l -13.9,-24.078 -13.9,24.078 h -27.81 l -13.89,-24.078 13.89,-24.078 h -27.8 l -13.9,-24.078 -13.9,24.078 h -27.81 l 13.91,24.078 -13.91,24.078 h -27.8 l -13.9,-24.078 -13.9,24.078 h -27.81"
             style="fill:none;stroke:#000000;stroke-width:7.507;stroke-linecap:round;stroke-linejoin:round;stroke-miterlimit:10;stroke-dasharray:none;stroke-opacity:1"
             id="path50" />
          <path
             d="m 1519.66,816.457 13.91,24.078 -13.91,24.082 h 27.81 l 13.9,24.078 -13.9,24.078 h -27.81 l 13.91,24.079 -13.91,24.078 h 27.81 l 13.9,24.078 13.9,-24.078 h 27.8 l 13.91,24.078 -13.91,24.082 h 27.81 l 13.9,24.08 -13.9,24.08 h -27.81 l 13.91,24.07 -13.91,24.08 h -27.8 l -13.9,-24.08 -13.9,24.08 h -27.81 l 13.91,24.08 -13.91,24.08 h 27.81 l 13.9,24.08 -13.9,24.08 h -27.81 l 13.91,24.08 -13.91,24.08 h -27.8 l -13.9,-24.08 -13.9,24.08 h -27.81 l -13.9,-24.08 13.9,-24.08 h -27.8 l -13.9,-24.08 -13.91,24.08 h -27.8"
             style="fill:none;stroke:#000000;stroke-width:7.507;stroke-linecap:round;stroke-linejoin:round;stroke-miterlimit:10;stroke-dasharray:none;stroke-opacity:1"
             id="path52" />
          <path
             d="m 1352.84,1201.72 13.9,24.08 -13.9,24.08 h -27.8 l -13.9,-24.08 -13.91,24.08 h -27.8 l -13.9,-24.08 13.9,-24.08 h -27.8 l -13.9,-24.08 13.9,-24.08 h 27.8 l -13.9,-24.08 13.9,-24.08 h -27.8 l -13.9,-24.08 -13.91,24.08 h -27.8 l -13.9,-24.08 13.9,-24.07 h -27.81 l -13.9,-24.08 -13.9,24.08 h -27.8 l 13.9,24.07 -13.9,24.08 h -27.81 l -13.9,-24.08 -13.9,24.08 h -27.8 l 13.9,24.08 -13.9,24.08 h 27.8 l 13.9,24.08 -13.9,24.08 h -27.8 l 13.9,24.08 -13.9,24.08 h -27.805 l -13.903,-24.08 -13.902,24.08 h -27.805"
             style="fill:none;stroke:#000000;stroke-width:7.507;stroke-linecap:round;stroke-linejoin:round;stroke-miterlimit:10;stroke-dasharray:none;stroke-opacity:1"
             id="path54" />
          <path
             d="m 935.785,1249.88 -13.902,-24.08 13.902,-24.08 h -27.801 l -13.902,-24.08 -13.902,24.08 h -27.805 l 13.902,24.08 -13.902,24.08 H 824.57 l -13.902,-24.08 -13.898,24.08 h -27.805"
             style="fill:none;stroke:#000000;stroke-width:7.507;stroke-linecap:round;stroke-linejoin:round;stroke-miterlimit:10;stroke-dasharray:none;stroke-opacity:1"
             id="path56" />
          <!-- <path
             d="m 768.965,1249.88 -66.289,-39.75 40.015,-5.76 24.997,-31.77 1.277,77.28"
             style="fill:#000000;fill-opacity:1;fill-rule:evenodd;stroke:none"
             id="path58" /> -->
          <!-- <path
             d="m 768.965,1249.88 -66.289,-39.75 40.015,-5.76 24.997,-31.77 1.277,77.28"
             style="fill:none;stroke:#000000;stroke-width:7.507;stroke-linecap:round;stroke-linejoin:round;stroke-miterlimit:10;stroke-dasharray:none;stroke-opacity:1"
             id="path60" /> -->
        </g>
      </g>
    </g>
  </g>
</svg>
