<?xml version="1.0" encoding="UTF-8" standalone="no"?>
<!-- Created with Inkscape (http://www.inkscape.org/) -->

<svg
   version="1.1"
   id="svg2"
   width="501.33334"
   height="504"
   viewBox="0 0 501.33334 504"
   sodipodi:docname="snowflake.eps"
   xmlns:inkscape="http://www.inkscape.org/namespaces/inkscape"
   xmlns:sodipodi="http://sodipodi.sourceforge.net/DTD/sodipodi-0.dtd"
   xmlns="http://www.w3.org/2000/svg"
   xmlns:svg="http://www.w3.org/2000/svg">
  <defs
     id="defs6">
    <clipPath
       clipPathUnits="userSpaceOnUse"
       id="clipPath18">
      <path
         d="m 5,7.5 h 3750 v 3765 H 5 Z"
         id="path16" />
    </clipPath>
  </defs>
  <sodipodi:namedview
     id="namedview4"
     pagecolor="#ffffff"
     bordercolor="#000000"
     borderopacity="0.25"
     inkscape:showpageshadow="2"
     inkscape:pageopacity="0.0"
     inkscape:pagecheckerboard="0"
     inkscape:deskcolor="#d1d1d1" />
  <g
     id="g8"
     inkscape:groupmode="layer"
     inkscape:label="ink_ext_XXXXXX"
     transform="matrix(1.3333333,0,0,-1.3333333,0,504)">
    <g
       id="g10"
       transform="scale(0.1)">
      <g
         id="g12">
        <g
           id="g14"
           clip-path="url(#clipPath18)">
          <path
             d="m 747.5,1240.48 41.668,72.17 -41.668,72.17 h 83.332 l 41.668,72.17 -41.668,72.17 H 747.5 l 41.668,72.16 -41.668,72.17 h 83.332 l 41.668,72.17 41.668,-72.17 H 997.5 l 41.67,72.17 -41.67,72.17 h 83.33 l 41.67,72.17 -41.67,72.17 H 997.5 l 41.67,72.17 -41.67,72.17 h -83.332 l -41.668,-72.17 -41.668,72.17 H 747.5 l 41.668,72.17 -41.668,72.16 h 83.332 l 41.668,72.17 -41.668,72.17 H 747.5 l 41.668,72.17 -41.668,72.17 h 83.332 l 41.668,72.17 41.668,-72.17 H 997.5 l 41.67,72.17 -41.67,72.17 h 83.33 l 41.67,72.17 41.67,-72.17 h 83.33"
             style="fill:none;stroke:#000000;stroke-width:7.5;stroke-linecap:round;stroke-linejoin:round;stroke-miterlimit:10;stroke-dasharray:none;stroke-opacity:1"
             id="path20" />
          <path
             d="m 1247.5,2683.86 -41.67,-72.17 41.67,-72.17 h 83.33 l 41.67,72.17 41.67,-72.17 h 83.33 l 41.67,72.17 -41.67,72.17 h 83.33 l 41.67,72.17 -41.67,72.17 h -83.33 l 41.67,72.16 -41.67,72.17 h 83.33 l 41.67,72.17 41.67,-72.17 h 83.33 l 41.67,72.17 -41.67,72.17 h 83.33 l 41.67,72.17 41.67,-72.17 h 83.33 l -41.67,-72.17 41.67,-72.17 h 83.33 l 41.67,72.17 41.67,-72.17 h 83.33 l -41.67,-72.17 41.67,-72.16 h -83.33 l -41.67,-72.17 41.67,-72.17 h 83.33 l -41.67,-72.17 41.67,-72.17 h 83.33 l 41.67,72.17 41.67,-72.17 h 83.33"
             style="fill:none;stroke:#000000;stroke-width:7.5;stroke-linecap:round;stroke-linejoin:round;stroke-miterlimit:10;stroke-dasharray:none;stroke-opacity:1"
             id="path22" />
          <path
             d="m 2497.5,2539.52 41.67,72.17 -41.67,72.17 h 83.33 l 41.67,72.17 41.67,-72.17 h 83.33 l -41.67,-72.17 41.67,-72.17 h 83.33 l 41.67,72.17 41.67,-72.17 h 83.33 l -41.67,-72.17 41.67,-72.17 h -83.33 l -41.67,-72.17 41.67,-72.17 h 83.33 l -41.67,-72.16 41.67,-72.17 h -83.33 l -41.67,-72.17 -41.67,72.17 h -83.33 l -41.67,-72.17 41.67,-72.17 h -83.33 l -41.67,-72.17 41.67,-72.17 h 83.33 l -41.67,-72.17 41.67,-72.17 h 83.33 l 41.67,72.17 41.67,-72.17 h 83.33 l -41.67,-72.17 41.67,-72.16 h -83.33 l -41.67,-72.17 41.67,-72.17 h 83.33"
             style="fill:none;stroke:#000000;stroke-width:7.5;stroke-linecap:round;stroke-linejoin:round;stroke-miterlimit:10;stroke-dasharray:none;stroke-opacity:1"
             id="path24" />
          <path
             d="m 2997.5,1384.82 -41.67,-72.17 41.67,-72.17 h -83.33 l -41.67,-72.17 -41.67,72.17 h -83.33 l -41.67,-72.17 41.67,-72.17 h -83.33 l -41.67,-72.16 -41.67,72.16 h -83.33 l 41.67,72.17 -41.67,72.17 h -83.33 l -41.67,-72.17 -41.67,72.17 h -83.33 l -41.67,-72.17 41.67,-72.17 h -83.33 l -41.67,-72.16 41.67,-72.175 h 83.33 l -41.67,-72.168 41.67,-72.168 h -83.33 l -41.67,-72.168 -41.67,72.168 h -83.33 l -41.67,-72.168 41.67,-72.172 h -83.33 l -41.67,-72.168 -41.67,72.168 h -83.33 l 41.67,72.172 -41.67,72.168 h -83.33 l -41.67,-72.168 -41.67,72.168 h -83.33"
             style="fill:none;stroke:#000000;stroke-width:7.5;stroke-linecap:round;stroke-linejoin:round;stroke-miterlimit:10;stroke-dasharray:none;stroke-opacity:1"
             id="path26" />
          <path
             d="m 1497.5,807.469 41.67,72.168 -41.67,72.168 h 83.33 l 41.67,72.175 -41.67,72.16 h -83.33 l 41.67,72.17 -41.67,72.17 h -83.33 l -41.67,-72.17 -41.67,72.17 h -83.33 l -41.67,-72.17 41.67,-72.17 h -83.33 l -41.67,-72.16 -41.67,72.16 H 997.5 l 41.67,72.17 -41.67,72.17 h -83.332 l -41.668,-72.17 -41.668,72.17 H 747.5"
             style="fill:none;stroke:#000000;stroke-width:7.5;stroke-linecap:round;stroke-linejoin:round;stroke-miterlimit:10;stroke-dasharray:none;stroke-opacity:1"
             id="path28" />
          <!-- <path
             d="m 747.5,1240.48 -66.227,-39.71 39.977,-5.75 24.977,-31.75 1.273,77.21"
             style="fill:#000000;fill-opacity:1;fill-rule:evenodd;stroke:none"
             id="path30" />
          <path
             d="m 747.5,1240.48 -66.227,-39.71 39.977,-5.75 24.977,-31.75 1.273,77.21"
             style="fill:none;stroke:#000000;stroke-width:7.5;stroke-linecap:round;stroke-linejoin:round;stroke-miterlimit:10;stroke-dasharray:none;stroke-opacity:1"
             id="path32" /> -->
        </g>
      </g>
    </g>
  </g>
</svg>
